<svg id="Layer_1" data-name="Layer 1" xmlns="http://www.w3.org/2000/svg" xmlns:xlink="http://www.w3.org/1999/xlink" viewBox="0 0 540 548"><defs><style>.cls-1,.cls-5{fill:#1a0080;}.cls-2{clip-path:url(#clip-path);}.cls-3{opacity:0.5;}.cls-4{isolation:isolate;}.cls-5{stroke:#ff0dce;stroke-miterlimit:10;stroke-width:0.78px;}.cls-6{fill:#3046ee;}.cls-7{fill:#1a2ed6;}.cls-8{font-size:26px;fill:#fefefe;font-family:Gilroy-Heavy, Gilroy;font-weight:800;}.cls-9{letter-spacing:-0.02em;}.cls-10{letter-spacing:-0.03em;}.cls-11{letter-spacing:-0.01em;}.cls-12{letter-spacing:0em;}.cls-13{letter-spacing:0em;}.cls-14{letter-spacing:-0.03em;}.cls-15{fill:#e3c339;}.cls-16{fill:#c6a921;}.cls-17{letter-spacing:0em;}.cls-18{letter-spacing:-0.02em;}.cls-19{letter-spacing:0em;}.cls-20{letter-spacing:0em;}.cls-21{fill:#3a96c9;}.cls-22{fill:#1c75a2;}.cls-23{fill:#90bc60;}.cls-24{fill:#6e963a;}.cls-25{letter-spacing:-0.08em;}.cls-26{letter-spacing:0em;}</style><clipPath id="clip-path"><rect class="cls-1" x="-1392.5" y="512.6" width="1000" height="562.4"/></clipPath></defs><title>IAMV PMArtboard 7</title><rect class="cls-1" x="-1392.5" y="512.6" width="1000" height="562.4"/><g class="cls-2"><g class="cls-3"><g class="cls-4"><path class="cls-5" d="M-43.25,550.32l20.11-11.68a.34.34,0,0,1,.34,0l59.47,34.91a.34.34,0,0,1,0,.59l-20.1,11.68a.32.32,0,0,1-.35,0l-59.46-34.9A.35.35,0,0,1-43.25,550.32Z"/></g></g></g><rect class="cls-6" width="270" height="274"/><path class="cls-7" d="M205,146.35c-12.9-15.72-40.22-34.07-70-34.07s-57.25,18.48-70,34.07a4.16,4.16,0,0,0,0,5.3c13.21,16.1,40.59,34.07,70,34.07,30.49,0,57.7-19,70-34.07A4.16,4.16,0,0,0,205,146.35ZM163.37,149A28.37,28.37,0,1,1,135,120.63,28.41,28.41,0,0,1,163.37,149Zm-89.54,0a101,101,0,0,1,31.94-22.19,36.62,36.62,0,0,0,0,44.38A99.06,99.06,0,0,1,73.83,149Zm90.4,22.19a36.62,36.62,0,0,0,0-44.38A99.06,99.06,0,0,1,196.17,149,100.65,100.65,0,0,1,164.23,171.19Z"/><path class="cls-7" d="M120.8,149A14.2,14.2,0,1,0,135,134.8,14.22,14.22,0,0,0,120.8,149Zm20,0a5.85,5.85,0,1,1-5.85-5.84A5.86,5.86,0,0,1,140.85,149Z"/><path class="cls-7" d="M135,96.11a4.18,4.18,0,0,0,4.18-4.18V82.19a4.18,4.18,0,0,0-8.36,0v9.74A4.18,4.18,0,0,0,135,96.11Z"/><path class="cls-7" d="M159.92,101.69a4.17,4.17,0,0,0,5.69-1.56l5.56-9.74a4.17,4.17,0,1,0-7.25-4.14L158.36,96A4.17,4.17,0,0,0,159.92,101.69Z"/><path class="cls-7" d="M104.39,100.13A4.17,4.17,0,0,0,111.64,96l-5.56-9.75a4.17,4.17,0,1,0-7.25,4.14Z"/><path class="cls-7" d="M135,201.9a4.18,4.18,0,0,0-4.18,4.17v9.75a4.18,4.18,0,0,0,8.36,0v-9.75A4.18,4.18,0,0,0,135,201.9Z"/><path class="cls-7" d="M110.08,196.31a4.17,4.17,0,0,0-5.69,1.56l-5.56,9.74a4.17,4.17,0,1,0,7.25,4.14l5.56-9.74A4.17,4.17,0,0,0,110.08,196.31Z"/><path class="cls-7" d="M165.61,197.87a4.17,4.17,0,1,0-7.25,4.14l5.56,9.74a4.17,4.17,0,1,0,7.25-4.14Z"/><text class="cls-8" transform="translate(69.57 157.15)"><tspan class="cls-9">A</tspan><tspan class="cls-10" x="16.64" y="0">w</tspan><tspan x="37.58" y="0">a</tspan><tspan class="cls-11" x="53.33" y="0">r</tspan><tspan class="cls-12" x="63.21" y="0">e</tspan><tspan class="cls-13" x="77.78" y="0">n</tspan><tspan class="cls-9" x="92.68" y="0">e</tspan><tspan class="cls-14" x="106.72" y="0">s</tspan><tspan x="118.52" y="0">s</tspan></text><rect class="cls-15" x="270" width="270" height="274"/><path class="cls-16" d="M379.49,165a16.64,16.64,0,1,0-16.64,16.64A16.66,16.66,0,0,0,379.49,165Zm-16.64,8.32a8.32,8.32,0,1,1,8.32-8.32A8.33,8.33,0,0,1,362.85,173.27Z"/><path class="cls-16" d="M379.12,181.59H346.51A12.49,12.49,0,0,0,334,194.05l0,19.84a4.16,4.16,0,0,0,4.16,4.16h49.08a4.16,4.16,0,0,0,4.16-4.12c.19-20.05.19-19.74.19-19.77A12.46,12.46,0,0,0,379.12,181.59Zm4,28.14h-40.8l0-15.67a4.16,4.16,0,0,1,4.16-4.16h32.61a4.16,4.16,0,0,1,4.16,4.19Z"/><path class="cls-16" d="M463.88,165a16.64,16.64,0,1,0-16.64,16.64A16.66,16.66,0,0,0,463.88,165Zm-16.64,8.32a8.32,8.32,0,1,1,8.32-8.32A8.33,8.33,0,0,1,447.24,173.27Z"/><path class="cls-16" d="M463.51,181.59H430.89a12.48,12.48,0,0,0-12.47,12.46l0,19.84a4.16,4.16,0,0,0,4.16,4.16h49.08a4.16,4.16,0,0,0,4.16-4.12c.19-20.05.19-19.74.19-19.77a12.46,12.46,0,0,0-12.48-12.57Zm4,28.14h-40.8l0-15.67a4.16,4.16,0,0,1,4.15-4.16h32.62a4.16,4.16,0,0,1,4.16,4.19Z"/><circle class="cls-16" cx="355.5" cy="101.03" r="4.16"/><circle class="cls-16" cx="372.14" cy="101.03" r="4.16"/><circle class="cls-16" cx="388.78" cy="101.03" r="4.16"/><path class="cls-16" d="M440.63,138.49l.09-12.78h10.45a24.82,24.82,0,0,0,0-49.64H427.32a24.84,24.84,0,0,0-21.63,12.66,24.84,24.84,0,0,0-21.63-12.66H360.21a24.82,24.82,0,0,0,0,49.64h10.45l.09,12.78a4.17,4.17,0,0,0,7.06,3c24.76-24.24,25.27-23.76,27.88-28.4,2.6,4.61,3.06,4.1,27.89,28.4a4.16,4.16,0,0,0,7.05-3Zm-45.88-25c-.17.15-15.71,15.22-15.75,15.26l-.05-7.19a4.16,4.16,0,0,0-4.16-4.13H360.21a16.5,16.5,0,0,1,0-33h23.85c15.3,0,22.34,19.14,10.69,29.06Zm37.63,15.26s-15.69-15.21-15.75-15.26C405,103.53,412,84.39,427.32,84.39h23.85a16.5,16.5,0,1,1,0,33H436.6a4.15,4.15,0,0,0-4.16,4.13Z"/><circle class="cls-16" cx="455.89" cy="101.03" r="4.16"/><circle class="cls-16" cx="439.25" cy="101.03" r="4.16"/><circle class="cls-16" cx="422.61" cy="101.03" r="4.16"/><text class="cls-8" transform="translate(324.08 157.15)"><tspan class="cls-17">C</tspan><tspan x="18.54" y="0">o</tspan><tspan class="cls-18" x="33.47" y="0">n</tspan><tspan class="cls-10" x="48.03" y="0">v</tspan><tspan class="cls-19" x="62.2" y="0">e</tspan><tspan class="cls-18" x="76.76" y="0">r</tspan><tspan x="86.51" y="0">sa</tspan><tspan class="cls-20" x="114.86" y="0">t</tspan><tspan class="cls-13" x="125.13" y="0">i</tspan><tspan x="131.97" y="0">on</tspan></text><rect class="cls-21" y="274" width="270" height="274"/><path class="cls-22" d="M209.45,476.91l-2.15-2.16a2.22,2.22,0,0,0-3.14,3.13l1.85,1.85-9.4,9.4-16-16,9.4-9.4,7.45,7.45a2.22,2.22,0,1,0,3.14-3.13l-9-9h0l-6.26-6.27h0l-5.53-5.53a4,4,0,0,0-5.64,0l-.31.31-7.93-7.93A59.65,59.65,0,0,0,177.66,415h15.61a2.22,2.22,0,0,0,0-4.43H178.44c.2-1.41.34-2.84.44-4.28h25a2.22,2.22,0,0,0,0-4.43H179c0-1.43-.07-2.85-.18-4.27h14.44a2.22,2.22,0,0,0,0-4.43h-15a59,59,0,0,0-12.2-27.94,2.21,2.21,0,0,0-3.47,2.75,54.78,54.78,0,0,1,11.93,34.35,55.38,55.38,0,1,1-18.14-41,2.22,2.22,0,1,0,3-3.28,59.82,59.82,0,1,0-51.52,103V476a2.22,2.22,0,0,0,4.43,0V461.74c1.41.16,2.83.27,4.27.34v24.35a2.22,2.22,0,0,0,4.43,0V462.11c1.44-.05,2.86-.14,4.27-.28V476a2.22,2.22,0,0,0,4.43,0v-14.8A59.58,59.58,0,0,0,156.51,449l7.93,7.93-.31.31a4,4,0,0,0,0,5.64l5.53,5.54h0l6.27,6.27h0l17.86,17.85a3.92,3.92,0,0,0,2.82,1.17,4,4,0,0,0,2.82-1.16l10-10a4,4,0,0,0,0-5.64ZM163,443l7.7,7.69-3.14,3.14-7.69-7.7c1.08-1,2.12-2.05,3.13-3.13Zm14.49,27-3.14-3.14,9.4-9.4,3.13,3.14ZM177,450.7l3.66,3.65-9.4,9.4-3.66-3.66Z"/><path class="cls-22" d="M88.34,442.87a52,52,0,0,0,30.86,10.4,51,51,0,0,0,0-101.91,50.33,50.33,0,0,0-35.91,14.95,51.43,51.43,0,0,0-15.05,36,49.84,49.84,0,0,0,12.82,33.92,2.22,2.22,0,1,0,3.29-3,45.4,45.4,0,0,1-11.68-30.9,47.1,47.1,0,0,1,13.75-32.91,46,46,0,0,1,32.78-13.64,46.53,46.53,0,0,1,0,93A47.51,47.51,0,0,1,91,439.33a2.22,2.22,0,1,0-2.67,3.54Z"/><path class="cls-22" d="M127.62,362.73H112.25a3.4,3.4,0,0,0-3.39,3.4V374H94.53a3.4,3.4,0,0,0-3.4,3.4v23.78h-3a2.22,2.22,0,1,0,0,4.43H151.7a2.22,2.22,0,1,0,0-4.43h-3V388.58a3.41,3.41,0,0,0-3.4-3.4H131V366.13A3.4,3.4,0,0,0,127.62,362.73ZM95.56,378.39h13.3v22.75H95.56Zm17.73-11.22h13.29v34H113.29Zm31,22.45v11.52H131V389.62Z"/><path class="cls-22" d="M144.75,424.34H134.32l-4.74-12.11a2.21,2.21,0,0,0-4.14,0L119,429.73l-4.52-12.83a2.22,2.22,0,0,0-4-.34l-4.34,7.78H95.67a2.22,2.22,0,1,0,0,4.43h11.7a2.21,2.21,0,0,0,1.93-1.13l2.59-4.64,4.93,14a2.21,2.21,0,0,0,2.07,1.48h0A2.21,2.21,0,0,0,121,437l6.58-17.75,3.17,8.1a2.21,2.21,0,0,0,2.07,1.41h11.94a2.22,2.22,0,0,0,0-4.43Z"/><text class="cls-8" transform="translate(105.01 414.15)">Da<tspan class="cls-11" x="34.09" y="0">t</tspan><tspan x="44.23" y="0">a</tspan></text><rect class="cls-23" x="270" y="274" width="270" height="274"/><path class="cls-24" d="M455.4,398.68a7.08,7.08,0,0,0-13.34,0H427.45v-9.45h9.45a2.37,2.37,0,0,0,2.37-2.36h0V377a7.09,7.09,0,1,0-4.73,0v7.52h-7.09V379.8a2.37,2.37,0,0,0-2.36-2.37h-4.73V365.18a7.09,7.09,0,1,0-4.73,0v12.25h-9.45V339.71a2.37,2.37,0,0,0-2.36-2.37h0c-29.15,0-52,21.11-52,48.05,0,12.8,5.08,29.75,13.26,44.22,1.47,2.6,3.38,5.34,5.41,8.23,4.29,6.11,9.07,13,9.59,19a6.7,6.7,0,0,0-2.84,5.6,7,7,0,0,0,1.56,4.39,7.3,7.3,0,0,0-2.17,5.23,7.1,7.1,0,0,0,7.09,7.09h40.18A7.14,7.14,0,0,0,431,472v-.07a7,7,0,0,0-2.17-5.09,7.31,7.31,0,0,0,1.57-4.53,6.79,6.79,0,0,0-6.79-6.77H406.18v-45h4.73v7.09a2.36,2.36,0,0,0,2.36,2.36h7.09v2.8a7.09,7.09,0,1,0,4.73,0v-5.16a2.37,2.37,0,0,0-2.37-2.37h-7.09v-4.72h9.46a2.36,2.36,0,0,0,2.36-2.36h0v-4.72h14.61a7.08,7.08,0,0,0,13.34-4.75ZM436.9,368a2.37,2.37,0,1,1-2.36,2.36A2.37,2.37,0,0,1,436.9,368Zm-62.53,67.15c-2-2.8-3.81-5.44-5.17-7.84-7.68-13.6-12.65-30.05-12.65-41.9,0-23.56,19.54-42.18,44.91-43.27v16.51c-.63.05-1.27.1-2,.19a2.36,2.36,0,0,0-2,1.85l-.72,3.43c-.6.14-1.19.3-1.78.48L392.63,362a2.39,2.39,0,0,0-2.69-.6,35.66,35.66,0,0,0-7.43,4.34,2.38,2.38,0,0,0-.83,2.63l1.09,3.3c-.45.42-.88.86-1.3,1.3l-3.31-1.08a2.38,2.38,0,0,0-2.62.82,35,35,0,0,0-4.34,7.44,2.37,2.37,0,0,0,.59,2.69l2.63,2.35c-.18.58-.33,1.17-.47,1.76l-3.68.73a2.37,2.37,0,0,0-1.9,2.32V398a2.37,2.37,0,0,0,1.9,2.32l3.68.74c.14.58.29,1.17.47,1.75l-2.63,2.36a2.37,2.37,0,0,0-.6,2.68,35.52,35.52,0,0,0,4.35,7.44,2.38,2.38,0,0,0,2.62.82l3.3-1.08c.43.44.86.88,1.31,1.3l-1.09,3.3a2.38,2.38,0,0,0,.82,2.62,35.34,35.34,0,0,0,7.44,4.35,2.39,2.39,0,0,0,2.69-.6l2.35-2.63c.59.18,1.18.34,1.78.48l.72,3.42a2.35,2.35,0,0,0,2,1.86c.69.09,1.33.15,2,.19V455.5H384.71C383.74,448.54,378.81,441.45,374.37,435.13ZM382.55,394a21.28,21.28,0,0,0,18.91,21.12v8.13l-.4-1.86a2.35,2.35,0,0,0-1.89-1.84,26.66,26.66,0,0,1-4.12-1.11,2.36,2.36,0,0,0-2.56.65l-2.22,2.48a32.51,32.51,0,0,1-3.56-2.09l1-3.12a2.37,2.37,0,0,0-.72-2.55,25.34,25.34,0,0,1-3-3,2.39,2.39,0,0,0-2.54-.72l-3.12,1a29.6,29.6,0,0,1-2.09-3.56l2.48-2.22a2.36,2.36,0,0,0,.64-2.56,26.66,26.66,0,0,1-1.11-4.12,2.36,2.36,0,0,0-1.86-1.89l-3.3-.66v-4.19l3.3-.66a2.34,2.34,0,0,0,1.86-1.89,26.66,26.66,0,0,1,1.11-4.12,2.36,2.36,0,0,0-.64-2.56l-2.48-2.22a29.6,29.6,0,0,1,2.09-3.56l3.12,1a2.39,2.39,0,0,0,2.54-.72,27,27,0,0,1,3-3,2.34,2.34,0,0,0,.72-2.53l-1-3.13a31.46,31.46,0,0,1,3.55-2.09l2.22,2.48a2.37,2.37,0,0,0,2.56.65,26.66,26.66,0,0,1,4.12-1.11,2.35,2.35,0,0,0,1.89-1.84l.4-1.86v8.13A21.28,21.28,0,0,0,382.55,394Zm18.91-16.36v32.71a16.52,16.52,0,0,1,0-32.71ZM426.27,472a2.37,2.37,0,0,1-2.36,2.37H383.73a2.4,2.4,0,0,1-2.36-2.45v-.08a2.37,2.37,0,0,1,2.36-2.37h40.18a2.42,2.42,0,0,1,2.36,2.45Zm-3-11.81a2.17,2.17,0,0,1,2.36,1.95,1.92,1.92,0,0,1,0,.24,2.36,2.36,0,0,1-2.36,2.37h-39a2.41,2.41,0,0,1-2.37-2.45v-.08a2.14,2.14,0,0,1,2.23-2h39.1Zm-.58-33.17a2.37,2.37,0,1,1-2.36,2.36A2.37,2.37,0,0,1,422.72,427.06ZM418,356.16a2.37,2.37,0,1,1-2.37,2.37A2.37,2.37,0,0,1,418,356.16Zm4.72,49.63H406.18V382.16h16.54Zm26-2.36a2.37,2.37,0,1,1,2.36-2.37A2.36,2.36,0,0,1,448.72,403.43Z"/><path class="cls-24" d="M426.61,445.37A41.48,41.48,0,0,0,424.4,450l4.4,1.74a33.78,33.78,0,0,1,1.95-4.07Z"/><path class="cls-24" d="M431.92,437c-.92,1.34-1.85,2.69-2.74,4.06l4,2.57c.86-1.33,1.76-2.64,2.65-3.93Z"/><path class="cls-24" d="M437.3,429.18c-.8,1.26-1.68,2.57-2.62,3.91l3.89,2.7c1-1.4,1.9-2.77,2.73-4.1Z"/><path class="cls-24" d="M441.74,420.94q-1,2.13-2.13,4.2l4.17,2.23c.77-1.44,1.51-2.91,2.22-4.39Z"/><path class="cls-24" d="M445.43,412.27q-.82,2.19-1.76,4.37L448,418.5q1-2.28,1.83-4.57Z"/><path class="cls-24" d="M455.81,384.92l-4.73,0v.43c0,1.32-.06,2.72-.18,4.16l4.71.4c.13-1.57.2-3.11.2-4.56Z"/><path class="cls-24" d="M454.6,374.86l-4.6,1.08a40,40,0,0,1,.79,4.48l4.69-.56A44.71,44.71,0,0,0,454.6,374.86Z"/><path class="cls-24" d="M451.21,365.31,447,367.38a42.82,42.82,0,0,1,1.76,4.2l4.45-1.59A46.71,46.71,0,0,0,451.21,365.31Z"/><path class="cls-24" d="M445.8,356.76l-3.7,2.94a43.74,43.74,0,0,1,2.64,3.71l4-2.52A46,46,0,0,0,445.8,356.76Z"/><path class="cls-24" d="M438.72,349.54l-3,3.65a44.55,44.55,0,0,1,3.36,3.09l3.37-3.32A50.23,50.23,0,0,0,438.72,349.54Z"/><path class="cls-24" d="M430.36,343.91l-2.25,4.16c1.35.73,2.67,1.53,3.92,2.37l2.64-3.92C433.29,345.59,431.84,344.71,430.36,343.91Z"/><path class="cls-24" d="M421.09,340l-1.43,4.5c1.47.47,2.92,1,4.31,1.59l1.85-4.34C424.29,341.09,422.7,340.5,421.09,340Z"/><path class="cls-24" d="M411.29,337.82l-.61,4.69c1.53.2,3.05.46,4.54.79l1-4.61C414.62,338.33,413,338,411.29,337.82Z"/><rect class="cls-24" x="337.65" y="464.87" width="4.73" height="4.73"/><rect class="cls-24" x="337.65" y="474.32" width="4.73" height="4.73"/><rect class="cls-24" x="342.38" y="469.6" width="4.73" height="4.73"/><rect class="cls-24" x="332.92" y="469.6" width="4.73" height="4.73"/><rect class="cls-24" x="467.62" y="337.26" width="4.73" height="4.73"/><rect class="cls-24" x="467.62" y="346.71" width="4.73" height="4.73"/><rect class="cls-24" x="472.35" y="341.99" width="4.73" height="4.73"/><rect class="cls-24" x="462.9" y="341.99" width="4.73" height="4.73"/><text class="cls-8" transform="translate(336.17 414.15)"><tspan class="cls-25">T</tspan><tspan class="cls-26" x="12.22" y="0">e</tspan><tspan class="cls-20" x="26.84" y="0">c</tspan><tspan x="40.36" y="0">h</tspan><tspan class="cls-13" x="55.31" y="0">n</tspan><tspan x="70.21" y="0">o</tspan><tspan class="cls-13" x="85.14" y="0">l</tspan><tspan x="91.97" y="0">ogy</tspan></text></svg>