<svg xmlns="http://www.w3.org/2000/svg" viewBox="0 0 103.35 124.55"><defs><style>.cls-1{fill:#030305;}.cls-1,.cls-4{fill-rule:evenodd;}.cls-2,.cls-5{fill:#fff;}.cls-3{fill:#ee5323;}.cls-4{fill:#fb2400;}.cls-5{font-size:11.2px;font-family:Helvetica-Bold, Helvetica;font-weight:700;}</style></defs><title>SPKRSAsset 10</title><g id="Layer_2" data-name="Layer 2"><g id="Layer_1-2" data-name="Layer 1"><polygon class="cls-1" points="0 0 103.35 0 103.35 124.55 93.63 103.35 0 103.35 0 0"/><path class="cls-2" d="M22,72.84a14,14,0,0,1-8.37-2.92l2-3a10.83,10.83,0,0,0,6.46,2.41c1.9,0,3.05-.89,3.05-2.16V67c0-1.52-2.16-2-4.44-2.79-2.92-.88-6.21-2-6.21-5.83v-.13c0-3.8,3.16-6.08,7.1-6.08a13.22,13.22,0,0,1,7.22,2.28l-1.77,3.17a11.72,11.72,0,0,0-5.58-1.9c-1.78,0-2.79.89-2.79,2v.12c0,1.4,2.15,2,4.44,2.79,2.91.89,6.08,2.16,6.08,5.84v.12c.13,4.19-3,6.22-7.22,6.22"/><polygon class="cls-2" points="51.8 72.46 46.48 72.46 40.52 63.96 37.73 66.88 37.73 72.46 33.29 72.46 33.29 42.15 37.73 42.15 37.73 61.42 45.97 52.67 51.55 52.67 43.69 60.79 51.8 72.46"/><path class="cls-2" d="M63.22,64.72a8.94,8.94,0,1,1,9.12-8.87,8.8,8.8,0,0,1-9.12,8.87m0-13.95a4.67,4.67,0,0,0-4.7,4.95,4.87,4.87,0,0,0,4.82,5.07A4.66,4.66,0,0,0,68,55.85a4.88,4.88,0,0,0-4.81-5.08"/><rect class="cls-2" x="76.78" y="42.15" width="4.56" height="30.3"/><rect class="cls-3" x="55.23" y="67.89" width="16.1" height="4.56"/><rect class="cls-2" x="86.42" y="42.15" width="4.56" height="30.3"/><path class="cls-4" d="M21.43,36.05h6.89V19.41h6.27V13.68H15.16v5.73h6.27V36.05Zm13.61,0H53.9V30.31h-12V27.52H52.49V22.2H41.93V19.41H53.56V13.68H35V36.05Zm20,0H65c7.8,0,11.44-4.36,11.44-11.22,0-5.64-2.64-11.15-10.09-11.15H55V36.05ZM61.9,19.41h2.19c5,0,5.42,3.92,5.42,5.33,0,2.09-.62,5.57-4.91,5.57H61.9Z"/><polygon class="cls-4" points="76.94 27.3 81.71 27.3 84.09 23.27 86.41 27.3 91.42 27.3 86.6 20.14 90.93 13.78 86.31 13.78 84.3 17.47 82.26 13.78 77.37 13.78 81.82 20.12 76.94 27.3"/><text class="cls-5" transform="translate(14.08 88.66)">Conversations</text></g></g></svg>